<?xml version="1.0"?>
<svg xmlns="http://www.w3.org/2000/svg" viewBox="0 0 64 64" width="512" height="512"><g id="File_folder" data-name="File folder"><path d="M60.144,27.737A5,5,0,0,0,56.355,26H56V21a5.009,5.009,0,0,0-4-4.9V7a1,1,0,0,0-1-1H48V3a1,1,0,0,0-1-1H13a1,1,0,0,0-1,1v7.1A5.009,5.009,0,0,0,8,15v1H7a5.006,5.006,0,0,0-5,5V61a1.65,1.65,0,0,0,.233.642A1,1,0,0,0,3,62H51.555a4.961,4.961,0,0,0,4.94-4.225L61.3,31.742A5,5,0,0,0,60.144,27.737ZM54,21v5H52V18.184A3,3,0,0,1,54,21Zm-4,5H18V8H50ZM14,4H46V6H17a1,1,0,0,0-1,1V26H14ZM4,21a3,3,0,0,1,3-3H9a1,1,0,0,0,1-1V15a3,3,0,0,1,2-2.816V26.04a4.943,4.943,0,0,0-4.5,4.19L4,49.763ZM59.328,31.412,54.522,57.445A3.019,3.019,0,0,1,51.555,60H4.2L9.478,30.555A3.019,3.019,0,0,1,12.445,28h43.91a3,3,0,0,1,2.973,3.412Z"/><path d="M47,14H21a1,1,0,0,0,0,2H47a1,1,0,0,0,0-2Z"/><path d="M21,10a1,1,0,0,0,0,2H47a1,1,0,0,0,0-2Z"/><path d="M47,18H21a1,1,0,0,0,0,2H47a1,1,0,0,0,0-2Z"/><path d="M47,22H21a1,1,0,0,0,0,2H47a1,1,0,0,0,0-2Z"/></g></svg>
